
<svg version="1.1" id="Layer_1" xmlns="http://www.w3.org/2000/svg" xmlns:xlink="http://www.w3.org/1999/xlink" x="0px" y="0px"
	 width="800px" height="600px" viewBox="0 0 800 600" enable-background="new 0 0 800 600" xml:space="preserve">
<g>
	<g>
		
		<path d="M164.208,37.547c17.954,0,35.908,0,53.856,0c0,0.733,0,1.467,0,2.201c33.984,16.975,57.87,26.531,53.857,68.155
			c-2.144,22.236-27.828,46.771-31.827,76.953c-5.348,40.415,2.166,82.226,36.718,92.344c21.757,6.368,50.452-3.845,75.894-4.399
			c70.369-1.529,137.179,29.263,186.059,54.967c15.776,8.299,38.26,25.38,51.403,26.381c16.204,1.238,41.929-18.978,51.41,4.399
			c-17.405,6.353-37.152,10.603-56.305,15.391c36.587,13.026,71.34-11.583,105.268-15.391c5.007,8.206-11.475,12.895,0,13.192
			c14.411-5.379,35.928-4.381,56.304-4.4c0,2.93,0,5.859,0,8.797c-0.814,0-1.632,0-2.448,0
			c-21.445,18.111-50.881,29.054-80.788,39.576c-5.636,6.235,3.639,14.469-2.446,21.984
			c-50.671,45.251-142.498,63.176-237.465,61.56c3.928,15.596,8.223,39.893,2.452,57.163c12.918,3.787,29.17,4.586,34.275,15.391
			c-16.043,20.035-64.22,11.215-100.372,13.188c-13.846-12.481-26.107-3.599-41.617-17.587
			c-26.705,13.406-56.703,7.519-85.681,6.592c-0.417-12.083-15.396-11.09-22.034-17.587c18.494-16.371,69.363-3.67,97.922-10.992
			c13.73-8.927,7.98-27.821,4.9-43.974c-90.401-25.942-172.445-69.415-181.159-153.907c-7.439-72.155,61.289-117.919,39.17-204.47
			c-53.865-7.928-115.729,37.885-159.125,0c0-5.864,0-11.726,0-17.59c13.322-19.571,46.14-9.637,66.099-15.39
			C118.16,98.679,126.042,49.373,164.208,37.547z 

M350.261,501.459c-15.026,12.3,3.62,42.377-12.239,54.965
			c43.679,6.314,71.494-24.401,48.967-57.167C379.574,504.335,361.735,500.035,350.261,501.459z"  fill="#EED033" stroke-color="#FFFFFF" stroke-width="5" />
	</g>
</g>
</svg>
